<svg height="60pt" preserveAspectRatio="xMidYMid meet" viewBox="0 0 60 60" width="60pt" xmlns="http://www.w3.org/2000/svg"><g transform="matrix(.1 0 0 -.1 0 60)"><path d="m85 468c-51-178-84-303-80-306 17-17 37 27 78 176 26 93 47 173 47 176s-7 6-15 6c-9 0-20-20-30-52z"/><path d="m309 506c-59-21-96-53-123-108-49-98-28-225 45-281 60-45 168-60 250-36 39 12 109 63 109 80s-31 9-64-16c-68-52-197-54-268-3-38 26-67 90-68 144 0 64 46 144 99 173 116 63 261-2 261-117 0-29-8-59-20-80-20-33-64-61-77-48-4 4 2 51 14 106 20 98 20 100 1 100-10 0-21-7-24-15-5-13-8-13-27 0-70 49-167-23-167-125 0-91 64-139 127-95 18 13 22 13 33 0 33-40 120 2 158 75 46 88 10 189-82 235-56 28-119 32-177 11zm93-133c12-11 18-30 18-61 0-37-6-50-34-78-39-39-49-41-76-14-46 46-4 168 59 170 8 0 23-7 33-17z"/></g></svg>